<?xml version="1.0" standalone="no"?>
<!DOCTYPE svg PUBLIC "-//W3C//DTD SVG 20010904//EN"
 "http://www.w3.org/TR/2001/REC-SVG-20010904/DTD/svg10.dtd">
<svg version="1.0" xmlns="http://www.w3.org/2000/svg"
 width="1500.000000pt" height="1500.000000pt" viewBox="0 0 1500.000000 1500.000000"
 preserveAspectRatio="xMidYMid meet">

<g transform="translate(0.000000,1500.000000) scale(0.100000,-0.100000)"
fill="#000000" stroke="none">
<path d="M7822 11817 c-21 -23 -22 -30 -22 -298 0 -351 -23 -319 232 -319 195
0 347 -12 460 -35 189 -39 318 -167 361 -360 37 -164 38 -269 35 -2910 -4
-2830 0 -2642 -63 -2951 -92 -452 -300 -758 -697 -1025 -259 -175 -563 -290
-892 -340 -185 -29 -513 -31 -691 -5 -411 59 -716 198 -982 450 -202 191 -313
388 -344 613 -15 102 -5 203 46 476 51 278 61 378 47 498 -35 293 -193 506
-441 591 -57 20 -85 23 -201 22 -117 -1 -145 -4 -215 -27 -257 -85 -454 -312
-529 -609 -70 -276 -57 -665 32 -973 139 -480 455 -912 927 -1265 408 -306
914 -492 1540 -567 211 -25 775 -25 990 0 534 63 961 191 1358 409 517 283
880 640 1093 1073 140 286 219 586 271 1032 15 135 17 382 23 2788 6 2451 7
2645 23 2710 46 185 146 306 297 360 84 30 246 45 501 45 244 0 246 0 267 23
21 23 22 30 22 298 0 275 0 276 -23 297 l-23 22 -1690 0 -1691 0 -21 -23z"/>
</g>
</svg>
